:SAMPLES-PER-SECOND 30
:FRAME-RANGE 1-564
:FULLY-SPECIFIED
:DEGREES
476
root  35.6621 36.9625 -129.676 -175.933 -20.7296 173.087
RightUpLeg  -21.1055 19.7754 -24.2395
RightLeg  20.7341 13.5829 5.43021
RightFoot  -16.2688 0.325768 10.1187
RightToes  1.21801e-010 1.2921e-014 -6.02303e-014
Spine  -7.16653 -3.40434 -5.1201
Spine1  7.83774 -2.31226 -4.95615
HEad  4.86266 40.1845 -19.0728
LeftShoulder1  1.22776 -1.20976 -21.0458
LeftArm  13.9095 -5.00918 -59.0028
LeftForeArm  26.975 -7.90944 -13.0437
LeftHand  -0.0381752 4.81557 3.01449
RightShoulder  1.10504 -0.0211994 27.5721
RightArm  -28.3088 -7.58182 47.661
RightForeArm  68.2607 -5.19444 2.45312
RightHand  0.236567 -7.59218 -13.6503
LeftUpLeg  -6.74773 -2.56793 -7.58502
LeftLeg  22.3018 -21.3609 -6.54406
LeftFoot  -12.4923 0.160951 8.51391
LeftToes  1.70735e-010 3.74918e-011 3.68705e-011
477
root  36.0952 36.9081 -130.348 -175 -24.8112 172.458
RightUpLeg  -18.8973 15.8056 -23.684
RightLeg  17.6655 14.3638 4.88042
RightFoot  -17.0354 0.741864 17.138
RightToes  1.21801e-010 1.2921e-014 -6.02303e-014
Spine  -6.90153 -3.27149 -4.28417
Spine1  7.68669 -2.10893 -5.56364
HEad  4.38313 39.9539 -20.4435
LeftShoulder1  1.31122 -1.5701 -20.7297
LeftArm  11.5533 -5.09175 -58.8801
LeftForeArm  29.2986 -5.7032 -13.65
LeftHand  -0.0364254 4.90901 3.08022
RightShoulder  1.11902 0.00130277 27.776
RightArm  -27.8981 -6.77334 46.7127
RightForeArm  67.592 -5.2429 2.59071
RightHand  0.173455 -6.9985 -13.9901
LeftUpLeg  -6.73994 -4.20671 -6.99581
LeftLeg  22.9295 -23.9083 -7.18156
LeftFoot  -13.146 0.209974 8.28886
LeftToes  1.70735e-010 3.74918e-011 3.68705e-011
478
root  36.5973 36.8698 -131.075 -173.85 -27.6807 171.311
RightUpLeg  -18.0196 14.6148 -23.5922
RightLeg  17.1623 14.3213 4.72589
RightFoot  -17.5283 0.995967 20.4444
RightToes  1.21801e-010 1.2921e-014 -6.02303e-014
Spine  -6.98995 -2.54443 -4.27281
Spine1  8.27457 -1.41518 -5.14863
HEad  4.77205 39.7285 -21.0904
LeftShoulder1  1.15077 -0.90813 -21.1714
LeftArm  8.32042 -5.64489 -58.335
LeftForeArm  32.1871 -3.09061 -13.9519
LeftHand  -0.0260374 5.40249 2.88214
RightShoulder  1.19483 0.298009 27.0862
RightArm  -28.5239 -6.26063 46.869
RightForeArm  67.7305 -5.17112 2.19476
RightHand  0.27006 -7.62555 -15.0701
LeftUpLeg  -6.4111 -6.48386 -6.78408
LeftLeg  22.5473 -25.0525 -7.0036
LeftFoot  -13.6886 0.222703 6.8407
LeftToes  1.70735e-010 3.74918e-011 3.68705e-011
479
root  37.0722 36.9897 -131.743 -173.206 -30.6475 171.423
RightUpLeg  -17.7439 15.2109 -22.3299
RightLeg  17.9743 13.649 4.71016
RightFoot  -14.4276 0.249221 12.8509
RightToes  1.21801e-010 1.2921e-014 -6.02303e-014
Spine  -6.79951 -1.78976 -1.58024
Spine1  8.48565 -0.536311 -5.8977
HEad  5.60005 40.1848 -20.898
LeftShoulder1  1.12247 -0.851797 -20.8395
LeftArm  5.61964 -5.00842 -57.1478
LeftForeArm  32.8622 -1.74783 -13.8242
LeftHand  -0.0368402 4.94398 3.49157
RightShoulder  1.26425 0.558669 26.6434
RightArm  -29.2017 -5.78961 47.2932
RightForeArm  68.1097 -5.08653 1.77827
RightHand  0.253049 -7.48294 -15.1318
LeftUpLeg  -5.9077 -9.21102 -5.14572
LeftLeg  21.047 -25.7677 -6.51233
LeftFoot  -13.631 0.179462 4.87573
LeftToes  1.70735e-010 3.74918e-011 3.68705e-011
480
root  37.6694 36.9727 -132.446 -172.29 -34.002 171.483
RightUpLeg  -17.7781 14.1769 -20.571
RightLeg  19.4591 10.7093 3.97897
RightFoot  -14.1568 0.303291 16.1752
RightToes  1.21801e-010 1.2921e-014 -6.02303e-014
Spine  -6.74975 -1.1982 -0.077708
Spine1  8.75087 0.0577298 -6.04619
HEad  6.72932 40.3939 -20.8282
LeftShoulder1  1.10298 -0.654724 -21.746
LeftArm  3.60953 -5.00405 -55.1956
LeftForeArm  32.3516 -0.372839 -13.7235
LeftHand  -0.0444692 4.73208 3.98277
RightShoulder  1.29714 0.764298 25.7699
RightArm  -29.4357 -4.77844 47.7503
RightForeArm  68.0585 -5.05442 1.57677
RightHand  0.22026 -7.28784 -14.6981
LeftUpLeg  -6.8103 -13.5457 -3.08557
LeftLeg  21.3245 -25.1795 -6.79188
LeftFoot  -14.2676 0.174442 3.47219
LeftToes  1.70735e-010 3.74918e-011 3.68705e-011
481
root  38.2705 36.9896 -133.124 -170.943 -38.1955 171.46
RightUpLeg  -17.5025 8.66356 -18.6044
RightLeg  20.2158 12.5525 4.8744
RightFoot  -14.1377 0.332278 17.4454
RightToes  1.21801e-010 1.2921e-014 -6.02303e-014
Spine  -6.39522 -1.24459 0.484558
Spine1  8.17016 -0.207618 -5.29967
HEad  7.23928 40.7216 -21.0442
LeftShoulder1  1.00063 -0.173841 -22.7068
LeftArm  0.942284 -3.86194 -53.4247
LeftForeArm  31.7974 0.00432987 -13.2235
LeftHand  -0.0344533 5.05629 3.72654
RightShoulder  1.39576 1.2173 24.7289
RightArm  -28.9811 -3.71352 47.9343
RightForeArm  67.6161 -5.10562 1.78062
RightHand  0.101885 -6.35219 -14.4788
LeftUpLeg  -8.90869 -19.2515 -0.410942
LeftLeg  22.0239 -23.6629 -7.49472
LeftFoot  -14.0306 0.140031 2.37544
LeftToes  1.70735e-010 3.74918e-011 3.68705e-011
